<svg width="188" height="187" viewBox="0 0 188 187" fill="none" xmlns="http://www.w3.org/2000/svg">
<g clip-path="url(#clip0_486_273)">
<path d="M70.8045 175.872L66.1729 186.21L63.03 184.804L67.5789 174.549C69.0676 171.158 68.1579 168.677 65.3458 167.436C62.5338 166.195 60.0526 167.105 58.5639 170.414L53.9323 180.752L50.7894 179.346L55.3383 169.173C57.7368 163.797 61.9548 162.474 66.6691 164.541C71.3007 166.609 73.1203 170.662 70.8045 175.872Z" fill="black"/>
<path d="M55.9172 161.647L53.3533 162.556C52.7744 160.571 51.7819 159.083 50.5413 158.173C49.3834 157.263 48.3082 157.263 47.7293 158.09V158.173C47.0676 159.083 48.0601 160.323 49.1353 161.812C50.5413 163.549 51.9473 165.782 50.2932 168.015V168.098C48.639 170.413 45.6616 170.331 43.3458 168.594C41.8571 167.436 40.6165 165.782 39.9548 163.962L42.5187 162.804C43.1804 164.376 44.0075 165.699 44.9999 166.444C46.0751 167.271 47.0676 167.188 47.5639 166.526V166.444C48.2255 165.617 47.233 164.21 46.1578 162.722C44.8345 160.902 43.4285 158.669 45.0827 156.519V156.436C46.9849 153.955 49.7969 154.12 52.2781 155.94C53.9323 157.346 55.3383 159.331 55.9172 161.647Z" fill="black"/>
<path d="M44.5865 153.541L31.6015 153.872L37.2256 159.91L35.1579 161.812L26.5564 152.631L28.2932 151.06L41.2782 150.729L35.406 144.444L37.4737 142.541L46.2406 151.97L44.5865 153.541Z" fill="black"/>
<path d="M30.4436 145.271C26.8045 147.504 22.0902 146.677 19.6917 142.872C18.203 140.474 18.203 138.489 18.6993 136.504L21.7594 137.083C21.3459 138.571 21.3459 139.895 22.1729 141.301C23.4962 143.368 26.2256 143.782 28.4587 142.459H28.5414C30.7744 141.053 31.6015 138.406 30.1955 136.173C29.3684 134.85 28.1278 134.188 26.6391 133.857L27.3008 131.045C29.4511 131.376 31.3534 132.286 32.8421 134.767C35.2406 138.489 34 143.038 30.4436 145.271Z" fill="black"/>
<path d="M26.5564 129.143L14.3985 124.511L17.2933 132.286L14.6466 133.278L10.2632 121.451L12.4136 120.624L24.5715 125.256L21.594 117.233L24.2406 116.241L28.7895 128.316L26.5564 129.143Z" fill="black"/>
<path d="M19.2782 101.85C20.0225 102.263 20.5188 102.677 21.1804 103.173C22.3383 104.083 23.1654 104.413 23.827 104.331C24.8195 104.165 25.0676 103.421 24.8195 102.098L26.391 101.85C26.4737 102.18 26.5564 102.429 26.5564 102.759C26.8872 105.158 26.1428 106.564 24.8195 106.729C24.0752 106.812 23.4135 106.647 22.5864 106.15C22.7519 106.481 22.8346 106.977 22.9173 107.391C23.5789 111.609 21.015 115.413 16.5489 116.158H16.4661C12.2481 116.82 8.36088 114.421 7.69923 110.203C6.95487 105.571 10.2631 102.594 14.4812 101.932C14.812 101.85 15.0601 101.85 15.4737 101.85L17.2105 112.601C19.609 111.857 20.6015 109.955 20.2707 107.804C20.0225 106.15 19.1955 105.158 17.8722 104.083L19.2782 101.85ZM13.7368 105.406C11.6692 105.985 10.0977 107.556 10.5113 109.707C10.8421 111.774 12.6616 112.932 14.9774 112.932L13.7368 105.406Z" fill="black"/>
<path d="M0.503784 90.9323L1.99251 87.8722L5.13536 91.4286L5.05266 93.9925L0.503784 90.9323ZM19.609 99.3684L17.376 97.797C18.6166 96.1429 19.2782 94.5714 19.3609 93C19.4436 91.5113 18.782 90.6842 17.8722 90.6015H17.7895C16.6316 90.6015 16.2181 92.0902 15.6391 93.8271C14.9775 95.9775 13.985 98.376 11.173 98.2932H11.0903C8.27822 98.2105 6.62409 95.812 6.70679 92.8346C6.7895 90.9323 7.45115 88.9474 8.60905 87.4587L11.0075 88.8647C10.0978 90.2707 9.51882 91.7594 9.43612 93C9.35341 94.3233 10.0151 95.0677 10.8421 95.1504H10.9248C12 95.1504 12.579 93.579 13.1579 91.8421C13.9023 89.6917 14.9775 87.2932 17.6241 87.376H17.7068C20.8496 87.4587 22.2557 89.9399 22.173 93.0827C22.0075 95.2331 21.1805 97.5489 19.609 99.3684Z" fill="black"/>
<path d="M2.32336 81.173L2.90231 77.782L23.1655 81.2557L22.5865 84.6467L2.32336 81.173Z" fill="black"/>
<path d="M4.39099 71.9097L5.38347 68.3533L8.52633 69.1804L7.53385 72.7368L4.39099 71.9097ZM9.76693 73.233L10.6767 69.9248L24.985 73.9774L24.0752 77.2857L9.76693 73.233Z" fill="black"/>
<path d="M11.6692 64.7144L13.2406 61.5715L23.6617 63.5565L16.0526 55.9475L17.376 53.3836L27.9624 55.1204L20.3534 47.7595L21.9248 44.6993L33.0075 55.8648L31.6015 58.5941L21.0978 56.9399L28.6241 64.549L27.2181 67.2783L11.6692 64.7144Z" fill="black"/>
<path d="M39.7068 43.7067L39.2106 40.9774C41.2782 40.7292 42.8497 40.0676 44.0076 38.9924C45.0827 37.9999 45.2482 36.9247 44.5865 36.2631C43.8421 35.436 42.3534 36.1804 40.782 37.0074C38.797 38.0826 36.3985 39.0751 34.4136 37.0074C32.4286 34.9398 33.0076 32.1277 35.1579 30.0601C36.564 28.7368 38.4662 27.9097 40.2858 27.5789L40.9474 30.2255C39.2933 30.5563 37.8046 31.218 36.8948 32.045C35.9023 32.9548 35.8196 33.9473 36.3985 34.5262C37.1429 35.2706 38.6316 34.6089 40.2858 33.7819C42.2707 32.7894 44.7519 31.7969 46.5715 33.7819C48.7218 36.0977 47.9775 38.827 45.7444 40.9774C44.3384 42.4661 42.1053 43.4586 39.7068 43.7067Z" fill="black"/>
<path d="M42.5188 23.1128L45.5789 21.3759L53.2707 28.7368L50.9549 18.2331L53.5188 16.7443L61.4586 24.0225L59.0602 13.6842L62.0376 11.9474L65.2632 27.3308L62.6165 28.8195L54.6767 21.7068L56.8271 32.2105L54.1805 33.6992L42.5188 23.1128Z" fill="black"/>
<path d="M67.9925 17.9849C66.9174 13.8495 69.2331 9.54878 73.6166 8.39088C78.0828 7.23299 82.1354 9.71419 83.2106 13.7668V13.8495C84.2858 17.9022 81.97 22.2029 77.5038 23.3608C73.2031 24.5187 69.0677 22.0375 67.9925 17.9849ZM79.985 14.7593C79.3234 12.1954 76.9249 10.5413 74.361 11.2856C71.7143 12.03 70.5565 14.5112 71.3008 16.9924V17.0751C71.9625 19.5563 74.361 21.1277 76.9249 20.4661C79.5715 19.7217 80.6467 17.2405 79.985 14.7593Z" fill="black"/>
<path d="M86.0225 25.6767L85.7744 22.9474C86.1052 22.9474 86.4361 22.9474 86.7669 22.9474C87.7594 22.8646 88.2556 22.2857 88.1729 20.9624L86.6015 6.15788L89.9925 5.82705L91.4812 20.797C91.812 23.8571 90.406 25.3459 87.594 25.594C87.015 25.6767 86.5188 25.6767 86.0225 25.6767ZM86.0225 0.699235L89.6616 0.368408L89.9925 3.59397L86.3534 3.9248L86.0225 0.699235Z" fill="black"/>
<path d="M107.609 25.5113C107.278 25.5113 106.947 25.5113 106.699 25.5113C104.218 25.3458 103.06 24.2707 103.143 22.9474C103.226 22.1203 103.639 21.4586 104.383 20.7143L104.466 18.8947C103.391 20.0526 101.82 20.8797 99.5038 20.797C96.6917 20.6316 94.2932 18.9774 94.4586 15.9173V15.8346C94.6241 12.609 97.2707 11.203 100.827 11.3684C102.481 11.4511 103.639 11.7819 104.797 12.1955V11.8646C104.88 9.71427 103.722 8.55638 101.323 8.47367C99.6692 8.39096 98.4286 8.72179 97.0225 9.13532L96.2782 6.406C97.9323 5.82705 99.5865 5.41352 101.985 5.49623C104.218 5.57893 105.789 6.24059 106.782 7.39848C107.857 8.55638 108.271 10.1278 108.105 12.0301L107.609 20.797L106.699 20.7143C105.955 21.3759 105.707 21.8722 105.707 22.4511C105.624 23.2782 106.286 23.6917 107.692 23.7744L107.609 25.5113ZM104.714 15.421V14.4286C103.887 14.015 102.729 13.7669 101.406 13.6842C99.1729 13.6015 97.8496 14.4286 97.7669 16V16.0827C97.6842 17.4887 98.8421 18.3985 100.496 18.4812C102.812 18.4812 104.549 17.3233 104.714 15.421Z" fill="black"/>
<path d="M120.429 16C122.331 11.3684 126.383 10.0451 129.692 11.3684C131.925 12.2782 133 14.015 133.413 15.6692L136.391 8.22556L139.534 9.46616L131.925 28.4887L128.782 27.2481L129.692 24.9323C128.12 25.9248 126.135 26.5038 123.985 25.594C120.759 24.3534 118.609 20.5489 120.429 16ZM131.594 20.4662C132.669 17.7368 131.511 15.2556 129.361 14.4286C127.21 13.6015 124.729 14.5113 123.654 17.2406V17.3233C122.579 19.9699 123.654 22.4511 125.887 23.3609C127.955 24.1053 130.519 23.1128 131.594 20.4662Z" fill="black"/>
<path d="M142.842 17.9022L145.737 19.7218L143.917 22.5338C145.902 21.1278 148.135 20.797 150.286 22.2857L148.301 25.3458L148.135 25.2631C145.571 23.609 142.842 24.1879 140.692 27.4962L137.632 32.2105L134.737 30.3909L142.842 17.9022Z" fill="black"/>
<path d="M147.391 32.2105L153.842 25.3458L156.323 27.6616L150.534 33.8646C148.962 35.6015 148.88 37.2556 150.368 38.6616C151.857 39.9849 153.677 39.9849 155.331 38.2481L161.038 32.1278L163.519 34.4436L153.511 45.2782L151.03 42.9624L152.601 41.3082C150.865 41.7218 149.128 41.6391 147.391 40.0676C144.91 37.6691 145.075 34.7744 147.391 32.2105Z" fill="black"/>
<path d="M153.346 49.2481L156.158 48.8346C156.241 50.7368 156.737 52.391 157.812 54.0451C159.549 56.5263 161.699 57.1053 164.18 55.3684L165.09 54.7068C163.105 54.5414 161.286 53.8797 159.962 51.8947C157.977 49 158.308 44.8647 161.947 42.3835H162.03C165.669 39.9023 169.639 41.2256 171.624 44.0376C173.03 46.1053 172.947 48.0075 172.451 49.7444L174.271 48.5038L176.173 51.3158L166.413 57.9323C164.346 59.3383 162.444 59.8346 160.707 59.5038C158.804 59.1729 157.15 57.7669 155.662 55.5338C154.173 53.6316 153.429 51.4812 153.346 49.2481ZM168.729 52.4737C170.797 51.0677 171.045 48.5038 169.722 46.6015C168.398 44.6165 166 44.0376 164.015 45.3609H163.932C161.947 46.6842 161.616 49.1654 162.94 51.1504C164.18 53.0526 166.662 53.797 168.729 52.4737Z" fill="black"/>
<path d="M165.504 76.1279C165.338 75.7971 165.256 75.5489 165.09 75.3008C164.263 72.985 164.677 71.4963 166 71.0001C166.744 70.6692 167.571 70.8347 168.564 71.2482L170.301 70.5865C168.812 70.0903 167.323 69.0151 166.496 66.8647C165.504 64.3008 166 61.4061 168.812 60.2482H168.895C171.872 59.0903 174.271 60.8271 175.594 64.2181C176.173 65.7895 176.421 66.9474 176.504 68.188L176.835 68.0226C178.82 67.2783 179.399 65.6241 178.489 63.391C177.91 61.8196 177.083 60.8271 176.09 59.752L178.241 57.9324C179.481 59.2557 180.556 60.4963 181.383 62.7294C182.211 64.7971 182.293 66.5339 181.632 67.9399C180.97 69.3459 179.729 70.4211 177.91 71.0828L169.722 74.3083L169.391 73.4813C168.481 73.0677 167.902 73.0677 167.406 73.2332C166.662 73.564 166.496 74.3083 166.993 75.5489L165.504 76.1279ZM173.526 69.3459L174.436 69.0151C174.436 68.1053 174.271 66.9474 173.774 65.6241C172.947 63.5565 171.707 62.7294 170.218 63.3083H170.135C168.812 63.8046 168.481 65.2933 169.06 66.8647C169.97 68.9324 171.79 70.0076 173.526 69.3459Z" fill="black"/>
<path d="M187.008 84.3158L187.173 87.7068L184.692 87.7895C186.263 88.782 187.587 90.2707 187.669 92.7519C187.835 96.2256 185.271 99.782 180.308 100.03H180.226C175.263 100.278 172.368 97.0526 172.203 93.4962C172.12 91.015 173.278 89.4436 174.602 88.2857L167.82 88.6165L167.654 85.2256L187.008 84.3158ZM180.143 96.5564C183.038 96.391 184.857 94.406 184.774 92.0902C184.692 89.7744 182.624 87.8722 179.812 87.9549H179.729C176.917 88.1203 175.098 90.188 175.18 92.5038C175.263 94.9023 177.165 96.7218 180.143 96.5564Z" fill="black"/>
<path d="M179.977 103.421C184.196 104.248 187.008 108.135 186.18 112.684C185.353 117.15 181.301 119.797 177.165 119.053H177.083C172.947 118.308 170.135 114.338 170.962 109.789C171.79 105.241 175.842 102.594 179.977 103.421ZM177.662 115.579C180.308 116.075 182.79 114.586 183.286 112.022C183.782 109.376 182.045 107.225 179.481 106.729H179.399C176.835 106.233 174.353 107.722 173.857 110.286C173.361 113.015 175.18 115.165 177.662 115.579Z" fill="black"/>
<path d="M176.173 127.571L167.158 124.18L168.316 121.038L175.759 123.85L175.511 121.451L178.571 122.609L178.82 125.007L187.504 128.316L186.346 131.459L179.233 128.729L179.481 131.128L176.421 129.97L176.173 127.571Z" fill="black"/>
<path d="M172.368 131.459C176.09 133.692 177.331 138.323 175.015 142.293C172.699 146.263 167.985 147.338 164.346 145.105H164.263C160.707 142.955 159.383 138.241 161.699 134.271C164.015 130.384 168.729 129.308 172.368 131.459ZM166 142.128C168.316 143.534 171.128 142.955 172.451 140.722C173.857 138.406 172.947 135.759 170.714 134.436H170.632C168.399 133.113 165.586 133.609 164.263 135.925C162.857 138.241 163.767 140.805 166 142.128ZM179.481 146.759L176.752 148.744L175.759 144.113L177.083 141.88L179.481 146.759Z" fill="black"/>
<path d="M168.398 152.383L165.917 154.865L156.654 149.654L161.451 159.248L159.383 161.316L149.872 156.353L154.835 165.782L152.353 168.18L145.323 154.12L147.474 151.97L156.985 156.85L152.271 147.256L154.421 145.105L168.398 152.383Z" fill="black"/>
<path d="M150.368 175.955L147.391 177.692L141.271 167.105L139.203 175.872L135.647 177.94L137.714 169.752L128.038 165.203L131.511 163.218L138.541 166.609L139.286 163.631L137.135 159.992L140.113 158.256L150.368 175.955Z" fill="black"/>
<path d="M115.797 171.82C116.128 170.993 116.376 170.496 116.79 169.752C117.534 168.429 117.699 167.602 117.451 166.94C117.12 166.03 116.376 165.865 115.135 166.278L114.639 164.707C114.887 164.541 115.218 164.459 115.466 164.376C117.782 163.632 119.271 164.128 119.684 165.368C119.932 166.113 119.85 166.774 119.436 167.684C119.767 167.519 120.263 167.271 120.594 167.188C124.647 165.865 128.782 167.684 130.271 172.068V172.15C131.594 176.203 129.857 180.421 125.887 181.827C121.421 183.316 117.947 180.587 116.624 176.534C116.541 176.203 116.459 175.955 116.376 175.624L126.714 172.15C125.556 169.917 123.571 169.256 121.504 169.917C119.932 170.414 119.023 171.406 118.278 172.895L115.797 171.82ZM120.263 176.617C121.173 178.602 122.91 179.842 125.06 179.098C127.045 178.436 127.955 176.451 127.459 174.135L120.263 176.617Z" fill="black"/>
<path d="M117.782 79.436C117.534 79.3533 117.368 79.3533 117.12 79.436C116.872 79.5187 116.707 79.6841 116.624 79.8495L107.278 95.233L98.015 79.8495C97.9323 79.6841 97.7669 79.6014 97.6015 79.5187C97.4361 79.436 97.2707 79.436 97.1053 79.436C96.9398 79.436 96.7744 79.436 96.609 79.5187C96.4436 79.6014 96.3609 79.6841 96.1955 79.8495L86.8496 95.233L77.6692 79.9322C77.5865 79.7668 77.421 79.6014 77.1729 79.5187C77.0075 79.436 76.7594 79.436 76.5113 79.5187C76.2631 79.6014 76.0977 79.6841 76.015 79.8495C75.8496 80.0149 75.8496 80.2631 75.8496 80.4285V111.361C75.8496 111.609 75.9323 111.857 76.1804 112.105C76.3459 112.271 76.594 112.436 76.9248 112.436H117.617C117.865 112.436 118.113 112.353 118.361 112.105C118.526 111.94 118.692 111.692 118.692 111.361V80.4285C118.692 80.1804 118.609 80.0149 118.526 79.7668C118.195 79.6014 118.03 79.5187 117.782 79.436Z" fill="black"/>
<path d="M93.6316 183.15C96.0982 183.15 98.0977 181.151 98.0977 178.684C98.0977 176.218 96.0982 174.218 93.6316 174.218C91.165 174.218 89.1654 176.218 89.1654 178.684C89.1654 181.151 91.165 183.15 93.6316 183.15Z" fill="black"/>
</g>
<defs>
<clipPath id="clip0_486_273">
<rect width="187.248" height="185.842" fill="white" transform="translate(0.503784 0.368408)"/>
</clipPath>
</defs>
</svg>
