<svg width="183" height="192" viewBox="0 0 183 192" fill="none" xmlns="http://www.w3.org/2000/svg">
<g clip-path="url(#clip0_486_209)">
<path d="M0.114502 59.8931L1.87786 56.2824L19.1756 64.7633L24.4656 53.8473L27.7405 55.4427L20.687 69.9694L0.114502 59.8931Z" fill="black"/>
<path d="M21.8626 49.0609C18 45.87 17.1604 40.58 20.2672 36.8013C23.7939 32.6029 28.9161 33.1907 32.6947 36.3815C32.9466 36.6334 33.1985 36.8853 33.5344 37.1372L25.3894 46.8777C27.8245 48.3891 30.2596 47.8853 31.939 45.87C33.1985 44.3586 33.4504 42.9311 33.3665 40.9158L36.4733 40.412C36.8932 42.9311 36.4733 45.4502 34.4581 47.8853C31.2672 51.7479 25.9771 52.4197 21.8626 49.0609ZM29.084 38.3968C26.9848 36.9693 24.4657 36.8013 22.7863 38.8166C21.1909 40.6639 21.5268 43.183 23.4581 45.1983L29.084 38.3968Z" fill="black"/>
<path d="M39.1603 35.6259L33.4503 28.4885L31.7709 29.832L29.6717 27.1449L31.3511 25.8014L28.4122 22.1068L31.519 19.5877L34.458 23.2824L38.0687 20.3434L40.1679 23.0304L36.5572 25.9694L41.8473 32.603C42.7709 33.7785 43.7786 33.7785 44.8702 32.9388C45.5419 32.435 46.0458 31.7633 46.3816 30.9236L48.3969 33.4427C47.9771 34.5343 47.3893 35.374 46.1297 36.3816C43.9465 38.3129 41.5954 38.6488 39.1603 35.6259Z" fill="black"/>
<path d="M43.3588 16.8166L46.8855 14.9693L48.0611 17.3204C48.3969 15.3891 49.0687 13.4578 51.5038 12.1983C55.0305 10.4349 58.1374 11.6945 59.9847 15.3052L65.0229 25.1296L61.4962 26.8929L57.0458 18.1601C55.7862 15.725 53.9389 14.9693 51.8397 16.0609C49.7404 17.1525 49.0687 19.2517 50.3282 21.6868L54.7786 30.4197L51.1679 32.183L43.3588 16.8166Z" fill="black"/>
<path d="M62.084 1.45029L66.1985 0.274719L67.2901 3.88541L63.1756 5.06098L62.084 1.45029ZM64.0153 7.58006L67.8779 6.40449L72.8321 22.9465L68.9695 24.206L64.0153 7.58006Z" fill="black"/>
<path d="M74.9313 13.2901C74.3435 8.25191 77.4504 3.88549 82.3206 3.38168C87.7786 2.79389 91.0534 6.74046 91.5572 11.6947C91.5572 12.0305 91.6412 12.4504 91.6412 12.7863L79.0458 14.2137C79.8015 16.9847 81.9007 18.3282 84.5038 17.9924C86.4351 17.7405 87.6946 16.9008 88.9542 15.3893L91.4733 17.1527C90.0458 19.2519 87.9465 20.7634 84.8397 21.1832C79.8015 21.771 75.5191 18.5802 74.9313 13.2901ZM87.5267 10.6031C87.0229 8.16794 85.2595 6.23664 82.6565 6.57252C80.2214 6.82442 78.7939 8.83969 78.7099 11.6107L87.5267 10.6031Z" fill="black"/>
<path d="M109.611 3.71755L113.389 4.97709L112.55 7.49617C114.061 6.40457 115.992 5.48091 118.511 6.3206C120.863 7.07633 122.206 8.83969 122.458 10.855C124.389 9.51144 126.489 8.92366 128.924 9.76335C132.534 10.9389 133.962 13.9618 132.618 17.9084L129.176 28.4046L125.397 27.145L128.504 17.8244C129.343 15.2214 128.588 13.374 126.489 12.7023C124.389 12.0305 122.542 12.9542 121.618 15.6412L118.595 24.8779L114.817 23.6183L117.924 14.2137C118.763 11.6107 118.008 9.84732 115.908 9.17556C113.809 8.50381 111.878 9.59541 111.038 12.1145L108.015 21.3511L104.237 20.0916L109.611 3.71755Z" fill="black"/>
<path d="M135.977 23.1983C138.916 19.0838 144.122 17.9082 148.153 20.8471C152.603 24.038 152.351 29.2441 149.412 33.2746C149.16 33.5265 148.992 33.8624 148.74 34.1143L138.496 26.641C137.153 29.1601 137.824 31.5952 139.924 33.1067C141.519 34.2823 143.031 34.4502 144.962 34.1983L145.634 37.2212C143.115 37.809 140.595 37.5571 137.992 35.7097C133.794 32.6868 132.786 27.4807 135.977 23.1983ZM147.061 29.6639C148.321 27.4807 148.321 24.9616 146.221 23.3662C144.206 21.9387 141.771 22.4426 139.924 24.3739L147.061 29.6639Z" fill="black"/>
<path d="M159.572 30.6716L162.176 33.6945L160.16 35.3739C162.092 35.206 164.191 35.4579 165.954 37.5571C168.473 40.58 167.969 43.9388 164.863 46.5418L156.382 53.6793L153.863 50.6564L161.336 44.3586C163.435 42.5953 163.687 40.58 162.176 38.8167C160.664 37.0533 158.481 36.8854 156.382 38.5648L148.908 44.8625L146.305 41.8396L159.572 30.6716Z" fill="black"/>
<path d="M163.855 53.7633L173.763 48.977L175.527 52.5037L166.71 56.7862C164.275 57.9617 163.519 59.8091 164.527 61.9083C165.534 64.0075 167.634 64.7633 170.069 63.5877L178.802 59.3053L180.565 62.9159L165.031 70.4732L163.267 66.8625L165.702 65.6869C163.687 65.3511 161.756 64.5114 160.58 62.1602C158.817 58.6335 160.16 55.5266 163.855 53.7633Z" fill="black"/>
<path d="M25.0535 122.534L26.8168 126.061L10.0229 134.374L15.229 144.87L12.0382 146.466L5.06873 132.443L25.0535 122.534Z" fill="black"/>
<path d="M21.5268 145.878C25.3054 142.687 30.5115 142.855 33.6184 146.55C37.0611 150.664 35.5497 155.45 31.855 158.557C31.6031 158.809 31.2672 158.977 31.0153 159.229L23.0382 149.74C21.1909 151.84 21.2749 154.275 22.8703 156.206C24.1298 157.634 25.4733 158.221 27.3207 158.389L27.2367 161.412C24.7176 161.412 22.3665 160.489 20.3512 158.137C17.2443 154.443 17.5802 149.237 21.5268 145.878ZM30.5115 154.695C32.1909 152.931 32.7787 150.496 31.1833 148.565C29.6718 146.718 27.2367 146.634 24.9695 148.061L30.5115 154.695Z" fill="black"/>
<path d="M34.2062 165.023L39.7481 158.053L38.0688 156.71L40.168 154.107L41.8474 155.45L44.7023 151.84L47.7252 154.275L44.8703 157.885L48.397 160.74L46.2978 163.343L42.771 160.488L37.6489 166.954C36.7252 168.13 36.8932 169.053 37.9848 169.893C38.6565 170.397 39.4123 170.733 40.252 170.901L38.3207 173.336C37.2291 173.168 36.2214 172.748 35.0459 171.824C32.6947 170.145 31.855 167.878 34.2062 165.023Z" fill="black"/>
<path d="M51 162.756L54.4427 164.519L53.2671 166.786C54.9465 165.863 56.9618 165.359 59.3129 166.534C62.7557 168.298 63.5114 171.488 61.7481 175.015L56.8778 184.588L53.4351 182.824L57.8015 174.259C58.9771 171.908 58.4733 169.977 56.458 168.969C54.4427 167.962 52.3435 168.634 51.1679 170.985L46.8855 179.466L43.4427 177.702L51 162.756Z" fill="black"/>
<path d="M68.7176 170.733L72.4122 171.824L67.626 187.947L63.9313 186.855L68.7176 170.733ZM70.397 164.687L74.3435 165.863L73.3359 169.389L69.3893 168.214L70.397 164.687Z" fill="black"/>
<path d="M74.8473 181.481C75.4351 176.611 79.2137 173.084 84 173.588C89.2901 174.176 91.5572 178.71 90.9695 183.496C90.9695 183.832 90.8855 184.168 90.8015 184.588L78.458 183.16C78.542 185.931 80.3053 187.695 82.8244 187.947C84.7557 188.198 86.0992 187.611 87.6107 186.435L89.626 188.702C87.7786 190.382 85.5114 191.389 82.4046 191.053C77.7023 190.634 74.2595 186.687 74.8473 181.481ZM87.4427 181.649C87.4427 179.214 86.2672 177.031 83.6641 176.779C81.313 176.527 79.4656 178.122 78.7939 180.725L87.4427 181.649Z" fill="black"/>
<path d="M104.405 174.679L108.099 173.504L108.855 175.939C109.443 174.176 110.366 172.412 112.886 171.572C115.153 170.817 117.168 171.405 118.595 172.832C119.351 170.733 120.695 169.053 123.13 168.298C126.657 167.122 129.428 168.717 130.687 172.58L133.962 182.824L130.267 184L127.328 174.931C126.489 172.412 124.893 171.405 122.794 172.076C120.779 172.748 119.855 174.595 120.611 177.198L123.55 186.267L119.855 187.443L116.916 178.29C116.076 175.771 114.481 174.763 112.382 175.435C110.282 176.107 109.443 178.038 110.199 180.557L113.137 189.626L109.443 190.801L104.405 174.679Z" fill="black"/>
<path d="M136.061 171.741C133.206 167.71 133.71 162.588 137.573 159.733C141.939 156.626 146.557 158.473 149.412 162.42C149.58 162.672 149.832 163.008 150 163.344L139.924 170.565C141.855 172.58 144.29 172.664 146.389 171.237C147.985 170.145 148.573 168.802 148.908 166.954L151.931 167.29C151.763 169.809 150.672 172.076 148.153 173.84C144.206 176.611 139.084 175.939 136.061 171.741ZM145.466 163.428C143.87 161.58 141.519 160.824 139.42 162.336C137.489 163.763 137.153 166.115 138.412 168.466L145.466 163.428Z" fill="black"/>
<path d="M146.641 153.099L149.16 150.16L151.092 151.84C150.672 149.992 150.588 147.977 152.267 145.962C154.786 143.023 158.061 143.023 161.084 145.626L169.229 152.595L166.71 155.534L159.405 149.321C157.389 147.557 155.458 147.641 153.947 149.405C152.435 151.084 152.603 153.267 154.618 155.03L161.84 161.244L159.321 164.183L146.641 153.099Z" fill="black"/>
<path d="M168.221 143.275L158.649 138.489L160.412 135.046L168.977 139.328C171.328 140.504 173.176 140 174.267 137.901C175.275 135.886 174.603 133.87 172.252 132.611L163.771 128.328L165.534 124.886L180.565 132.443L178.802 135.886L176.45 134.71C177.374 136.473 177.878 138.405 176.786 140.756C175.023 144.199 171.748 145.038 168.221 143.275Z" fill="black"/>
<path d="M8.76337 101.542C11.2676 101.542 13.2977 99.5118 13.2977 97.0076C13.2977 94.5033 11.2676 92.4732 8.76337 92.4732C6.25912 92.4732 4.22902 94.5033 4.22902 97.0076C4.22902 99.5118 6.25912 101.542 8.76337 101.542Z" fill="black"/>
<path d="M177.794 101.542C180.298 101.542 182.328 99.5118 182.328 97.0076C182.328 94.5033 180.298 92.4732 177.794 92.4732C175.29 92.4732 173.26 94.5033 173.26 97.0076C173.26 99.5118 175.29 101.542 177.794 101.542Z" fill="black"/>
<path d="M113.641 80.3816C113.389 80.2976 113.221 80.2976 112.969 80.3816C112.802 80.4655 112.55 80.6335 112.466 80.8014L102.977 96.4197L93.5725 80.8014C93.4885 80.6335 93.3206 80.5495 93.1527 80.4655C92.9847 80.3815 92.8168 80.3816 92.6488 80.3816C92.4809 80.3816 92.313 80.3815 92.145 80.4655C91.9771 80.5495 91.8931 80.6335 91.7252 80.8014L82.4046 96.4197L72.916 80.8014C72.8321 80.6335 72.6641 80.4655 72.4122 80.3816C72.2443 80.2976 71.9924 80.2976 71.7405 80.3816C71.4885 80.4655 71.3206 80.5495 71.2366 80.7174C71.0687 80.8854 71.0687 81.1373 71.0687 81.3052V112.71C71.0687 112.962 71.1527 113.214 71.4046 113.466C71.5725 113.633 71.8244 113.801 72.1603 113.801H113.473C113.725 113.801 113.977 113.717 114.229 113.466C114.397 113.298 114.565 113.046 114.565 112.71V81.3892C114.565 81.1373 114.481 80.9693 114.397 80.7174C114.061 80.5495 113.893 80.3816 113.641 80.3816Z" fill="black"/>
</g>
<defs>
<clipPath id="clip0_486_209">
<rect width="182.214" height="190.947" fill="white" transform="translate(0.114502 0.274811)"/>
</clipPath>
</defs>
</svg>
