<svg width="200" height="200" viewBox="0 0 200 200" fill="none" xmlns="http://www.w3.org/2000/svg">
<g clip-path="url(#clip0_81_2400)">
<path d="M113.677 199.309C156.839 199.309 199.175 150.829 199.175 100.414C199.175 45.3039 154.777 0.690613 99.9315 0.690613C45.0861 0.690613 0.6875 45.3039 0.6875 100.414C0.6875 152.901 45.2236 199.309 86.3232 199.309" stroke="#947A53" stroke-miterlimit="10"/>
<path d="M113.677 181.077C108.591 181.077 104.605 185.221 104.605 190.193C104.605 195.166 108.729 199.309 113.677 199.309" stroke="#947A53" stroke-miterlimit="10"/>
<path d="M86.3232 199.309C91.4092 199.309 95.3954 195.166 95.3954 190.193C95.3954 185.221 91.2717 181.077 86.3232 181.077" stroke="#947A53" stroke-miterlimit="10"/>
<path d="M83.7115 192.818C40.1376 185.083 7.14795 146.961 7.14795 100.967C7.14795 49.4475 48.66 7.59669 100.069 7.59669C151.478 7.59669 192.99 49.3094 192.99 100.967C192.99 146.823 160.138 184.945 116.701 192.818" stroke="#947A53" stroke-miterlimit="10"/>
<path d="M103.093 174.586C103.093 174.586 103.093 166.16 100.756 162.845C98.4196 166.16 98.4196 174.586 98.4196 174.586C98.4196 174.586 92.6464 169.613 84.124 175.691C96.3577 173.066 100.756 183.978 100.756 183.978C100.756 183.978 105.155 173.066 117.389 175.691C108.729 169.613 103.093 174.586 103.093 174.586Z" fill="#947A53"/>
<path d="M51.1106 129V127.464L58.7906 123.624V71.016L51.1106 67.176V65.64H75.1106V67.176L67.4306 71.016V123.624L75.1106 127.464V129H51.1106ZM88.5169 129V127.464L96.1969 123.624V71.016L88.5169 67.176V65.64H112.517V67.176L104.837 71.016V123.624L112.517 127.464V129H88.5169ZM125.923 129V127.464L133.603 123.624V71.016L125.923 67.176V65.64H149.923V67.176L142.243 71.016V123.624L149.923 127.464V129H125.923Z" fill="#4C2801"/>
</g>
<defs>
<clipPath id="clip0_81_2400">
<rect width="200" height="200" fill="white"/>
</clipPath>
</defs>
</svg>
