<svg width="200" height="200" viewBox="0 0 200 200" fill="none" xmlns="http://www.w3.org/2000/svg">
<g clip-path="url(#clip0_48_486)">
<path d="M113.677 199.309C156.839 199.309 199.175 150.829 199.175 100.414C199.175 45.3039 154.777 0.690613 99.9315 0.690613C45.0861 0.690613 0.6875 45.3039 0.6875 100.414C0.6875 152.901 45.2236 199.309 86.3232 199.309" stroke="#947A53" stroke-miterlimit="10"/>
<path d="M113.677 181.077C108.591 181.077 104.605 185.221 104.605 190.193C104.605 195.166 108.729 199.309 113.677 199.309" stroke="#947A53" stroke-miterlimit="10"/>
<path d="M86.3232 199.309C91.4092 199.309 95.3954 195.166 95.3954 190.193C95.3954 185.221 91.2717 181.077 86.3232 181.077" stroke="#947A53" stroke-miterlimit="10"/>
<path d="M83.7115 192.818C40.1376 185.083 7.14795 146.961 7.14795 100.967C7.14795 49.4475 48.66 7.59668 100.069 7.59668C151.478 7.59668 192.99 49.3094 192.99 100.967C192.99 146.823 160.138 184.945 116.701 192.818" stroke="#947A53" stroke-miterlimit="10"/>
<path d="M103.093 174.586C103.093 174.586 103.093 166.16 100.756 162.845C98.4196 166.16 98.4196 174.586 98.4196 174.586C98.4196 174.586 92.6464 169.613 84.124 175.691C96.3577 173.066 100.756 183.978 100.756 183.978C100.756 183.978 105.155 173.066 117.389 175.691C108.729 169.613 103.093 174.586 103.093 174.586Z" fill="#947A53"/>
<path d="M52.9856 129V127.464L60.6656 123.624V71.016L52.9856 67.176V65.64H76.9856V67.176L69.3056 71.016V123.624L76.9856 127.464V129H52.9856ZM117.848 129.48L93.6559 70.536L87.0319 67.176V65.64H111.032V67.176L102.776 70.728V71.208L120.728 115.176H121.208L139.064 70.824V70.44L131.192 67.176V65.64H151.352V67.176L145.88 70.056L121.208 129.48H117.848Z" fill="#4C2801"/>
</g>
<defs>
<clipPath id="clip0_48_486">
<rect width="200" height="200" fill="white"/>
</clipPath>
</defs>
</svg>
